<svg width="19" height="35" viewBox="0 0 19 35" fill="none" xmlns="http://www.w3.org/2000/svg">
<path fill-rule="evenodd" clip-rule="evenodd" d="M9.5 0C12.2483 0 14.4762 2.20988 14.4762 4.9359V17.5491C17.1882 19.2064 19 22.1798 19 25.5769C19 30.7811 14.7467 35 9.5 35C4.25329 35 0 30.7811 0 25.5769C0 22.1798 1.81179 19.2064 4.52381 17.5491V4.9359C4.52381 2.20988 6.75173 0 9.5 0ZM6.78571 18.9193C4.13311 19.9844 2.2619 22.5639 2.2619 25.5769C2.2619 29.542 5.50251 32.7564 9.5 32.7564C13.4975 32.7564 16.7381 29.542 16.7381 25.5769C16.7381 22.5639 14.8669 19.9844 12.2143 18.9193V4.9359C12.2143 3.44898 10.9991 2.24359 9.5 2.24359C8.00094 2.24359 6.78571 3.44898 6.78571 4.9359V18.9193Z" fill="#231815"/>
<path d="M15.5 25.5C15.5 28.8137 12.8137 31.5 9.5 31.5C6.18629 31.5 3.5 28.8137 3.5 25.5C3.5 22.1863 6.18629 19.5 9.5 19.5C12.8137 19.5 15.5 22.1863 15.5 25.5Z" fill="#00A4EF"/>
<path d="M11 16.5C11 15.6716 10.3284 15 9.5 15C8.67157 15 8 15.6716 8 16.5V23.5C8 24.3284 8.67157 25 9.5 25C10.3284 25 11 24.3284 11 23.5V16.5Z" fill="#00A4EF"/>
</svg>
