<svg width="12" height="10" viewBox="0 0 12 10" fill="none" xmlns="http://www.w3.org/2000/svg">
<path d="M3 4.5C3 5.32843 2.32843 6 1.5 6C0.671573 6 0 5.32843 0 4.5C0 3.67157 0.671573 3 1.5 3C2.32843 3 3 3.67157 3 4.5Z" fill="#231815"/>
<path d="M7.5 6.5C7.5 7.32843 6.82843 8 6 8C5.17157 8 4.5 7.32843 4.5 6.5C4.5 5.67157 5.17157 5 6 5C6.82843 5 7.5 5.67157 7.5 6.5Z" fill="#231815"/>
<path d="M7.5 1.5C7.5 2.32843 6.82843 3 6 3C5.17157 3 4.5 2.32843 4.5 1.5C4.5 0.671573 5.17157 0 6 0C6.82843 0 7.5 0.671573 7.5 1.5Z" fill="#231815"/>
<path d="M12 4.5C12 5.32843 11.3284 6 10.5 6C9.67157 6 9 5.32843 9 4.5C9 3.67157 9.67157 3 10.5 3C11.3284 3 12 3.67157 12 4.5Z" fill="#231815"/>
<path d="M3 8.5C3 9.32843 2.32843 10 1.5 10C0.671573 10 0 9.32843 0 8.5C0 7.67157 0.671573 7 1.5 7C2.32843 7 3 7.67157 3 8.5Z" fill="#231815"/>
<path d="M12 8.5C12 9.32843 11.3284 10 10.5 10C9.67157 10 9 9.32843 9 8.5C9 7.67157 9.67157 7 10.5 7C11.3284 7 12 7.67157 12 8.5Z" fill="#231815"/>
</svg>
